HIERARCHY
ROOT ui
{
	 OFFSET 0 0 0
	 CHANNELS 3 XPosition YPosition Z Position
	 EndSite
	 {
	 OFFSET 0 -1 0
	 }
}
ROOT li
{
	 OFFSET 0 0 0
	 CHANNELS 3 XPosition YPosition Z Position
	 EndSite
	 {
	 OFFSET 0 -1 0
	 }
}
ROOT ul
{
	 OFFSET 0 0 0
	 CHANNELS 3 XPosition YPosition Z Position
	 EndSite
	 {
	 OFFSET 0 -1 0
	 }
}
ROOT ll
{
	 OFFSET 0 0 0
	 CHANNELS 3 XPosition YPosition Z Position
	 EndSite
	 {
	 OFFSET 0 -1 0
	 }
}
ROOT tt
{
	 OFFSET 0 0 0
	 CHANNELS 3 XPosition YPosition Z Position
	 EndSite
	 {
	 OFFSET 0 -1 0
	 }
}
ROOT tb
{
	 OFFSET 0 0 0
	 CHANNELS 3 XPosition YPosition Z Position
	 EndSite
	 {
	 OFFSET 0 -1 0
	 }
}
ROOT td
{
	 OFFSET 0 0 0
	 CHANNELS 3 XPosition YPosition Z Position
	 EndSite
	 {
	 OFFSET 0 -1 0
	 }
}
ROOT v
{
	 OFFSET 0 0 0
	 CHANNELS 3 XPosition YPosition Z Position
	 EndSite
	 {
	 OFFSET 0 -1 0
	 }
}
ROOT bn
{
	 OFFSET 0 0 0
	 CHANNELS 3 XPosition YPosition Z Position
	 EndSite
	 {
	 OFFSET 0 -1 0
	 }
}
MOTION
Frames: 21
Frame Time: 0.002
-0.009125846862792969	0.0011220840215682983	0		0.4902138061523437	-2.417753173828125	0		-0.8783170776367187	0.1640839080810547	0		-0.7406368408203124	-2.39766015625	0		1.5977352294921876	-0.806327392578125	0		3.2854677734375	-0.4026233215332031	0		4.7039775390625	-0.2788553466796875	0		5.62135986328125	0.09866653442382813	0		-0.11440668487548829	5.91671533203125	0		
0.0675999526977539	-0.008528141975402833	0		0.5127919311523438	-2.419828369140625	0		-0.8824663696289062	0.16445159912109375	0		-0.7470548706054687	-2.399282470703125	0		1.5535069580078125	-0.8047355346679688	0		3.28126416015625	-0.4026551513671875	0		4.69487841796875	-0.27096612548828125	0		5.607205078125	0.09852597045898437	0		-0.13693338012695314	5.923228515625	0		
-0.015561039924621583	-0.006324958801269531	0		0.47938037109375	-2.419250732421875	0		-0.88662744140625	0.16482789611816406	0		-0.7544894409179688	-2.40088427734375	0		1.5871904296875	-0.8100392456054688	0		3.27114111328125	-0.3946162109375	0		4.69374462890625	-0.26516989135742186	0		5.60303759765625	0.09826844024658203	0		-0.12259147644042968	5.91832275390625	0		
0.05929113006591797	-0.00795926809310913	0		0.4859428405761719	-2.425134765625	0		-0.9567485961914063	0.16498097229003905	0		-0.8287434692382812	-2.390697998046875	0		1.53302001953125	-0.80631591796875	0		3.277783935546875	-0.4107721862792969	0		4.68940087890625	-0.281335693359375	0		5.5989052734375	0.09701277923583984	0		-0.10903892517089844	5.92742578125	0		
0.018345556259155273	-2.3813499510288237E-4	0		0.48776263427734373	-2.41796337890625	0		-0.8756742553710938	0.17235542297363282	0		-0.7441036987304688	-2.399382080078125	0		1.5929197998046876	-0.8059309692382812	0		3.291926025390625	-0.3930111999511719	0		4.69857958984375	-0.2616509094238281	0		5.61896533203125	0.10348110961914063	0		-0.11250120544433594	5.9277255859375	0		
0.05845684051513672	-4.7982001304626464E-4	0		0.49766534423828124	-2.416890625	0		-0.8945786743164063	0.16990003967285155	0		-0.7621734619140625	-2.39586181640625	0		1.540023193359375	-0.800208740234375	0		3.267946044921875	-0.39779061889648437	0		4.6856943359375	-0.25969158935546877	0		5.59511474609375	0.10548690032958985	0		0.01742401123046875	5.94943310546875	0		
-0.006219480037689209	0.0025263800621032717	0		0.49172698974609375	-2.418631103515625	0		-0.8982686157226563	0.1702561798095703	0		-0.7681099853515625	-2.397492919921875	0		1.573186279296875	-0.8055079956054687	0		3.255243408203125	-0.39468777465820315	0		4.6797265625	-0.27979421997070314	0		5.59732275390625	0.0972083740234375	0		-0.1341622314453125	5.91749072265625	0		
0.04417233276367188	-0.00685502576828003	0		0.4679418640136719	-2.426157470703125	0		-0.9017505493164063	0.17059889221191407	0		-0.7639196166992187	-2.4072568359375	0		1.5696259765625	-0.80536376953125	0		3.257619140625	-0.4027506103515625	0		4.68028076171875	-0.2739482727050781	0		5.58872607421875	0.08809056091308594	0		-0.13817042541503907	5.91878369140625	0		
0.04495519256591797	-0.0026459760665893555	0		0.46652435302734374	-2.423954833984375	0		-0.899064453125	0.1658531494140625	0		-0.7673599243164062	-2.40693994140625	0		1.5263173828125	-0.803730224609375	0		3.2585068359375	-0.3877763977050781	0		4.68006884765625	-0.2680648193359375	0		5.590564453125	0.09588336181640625	0		-0.15895440673828126	5.92327392578125	0		
0.041031803131103516	0.005613863945007324	0		0.45647042846679686	-2.413648681640625	0		-0.9730206909179687	0.1710301513671875	0		-0.7664747924804688	-2.401688720703125	0		1.566265869140625	-0.802103271484375	0		3.254338623046875	-0.3977215270996094	0		4.6770302734375	-0.26811422729492185	0		5.591634765625	0.10272605895996094	0		0.005746990203857422	5.950490234375	0		
0.04219625854492187	8.032780289649964E-4	0		0.48053817749023436	-2.415764892578125	0		-0.910778076171875	0.17152488708496094	0		-0.7714041748046875	-2.4033818359375	0		1.5604114990234375	-0.8049110717773438	0		3.2626279296875	-0.39079412841796873	0		4.66934033203125	-0.2600678405761719	0		5.58968212890625	0.087650634765625	0		-0.12997543334960937	5.9293662109375	0		
-0.020406721115112304	-0.004229312896728516	0		0.44890036010742185	-2.415199462890625	0		-0.9133041381835938	0.1717939910888672	0		-0.7890055541992187	-2.39993408203125	0		1.5578424072265624	-0.8047508544921875	0		3.253052978515625	-0.3926224365234375	0		4.66679541015625	-0.2600445861816406	0		5.5722646484375	0.09681761169433593	0		0.0010257060527801513	5.950958984375	0		
0.030270685195922853	-0.005667098045349121	0		0.4734867858886719	-2.417331298828125	0		-0.9156044311523438	0.17204127502441408	0		-0.7913917846679688	-2.399691162109375	0		1.512488037109375	-0.8060543823242188	0		3.241771728515625	-0.38940338134765623	0		4.66630712890625	-0.2740074768066406	0		5.56996142578125	0.09684809875488282	0		-0.1694023895263672	5.9262548828125	0		
-0.05080490493774414	-0.003484894037246704	0		0.42529141235351564	-2.420567626953125	0		-0.9877509765625	0.16813414001464844	0		-0.7727281494140625	-2.4147275390625	0		1.5193377685546876	-0.8089959106445312	0		3.2344833984375	-0.4042102355957031	0		4.64529541015625	-0.26667529296875	0		5.567857421875	0.09592483520507812	0		-0.17038523864746094	5.924451171875	0		
0.04235283279418945	5.303729772567749E-4	0		0.48439669799804685	-2.41813671875	0		-0.9045531005859375	0.175284912109375	0		-0.7764567260742188	-2.398501220703125	0		1.52251708984375	-0.801884521484375	0		3.281788330078125	-0.3876666564941406	0		4.669455078125	-0.2618632507324219	0		5.58004736328125	0.10287393951416016	0		-0.13716104125976564	5.9282119140625	0		
-0.02528179168701172	0.007531331062316894	0		0.4427429504394531	-2.412458984375	0		-0.9213029174804688	0.17265594482421875	0		-0.795161865234375	-2.39710595703125	0		1.5497744140625	-0.80406396484375	0		3.239114013671875	-0.3839818115234375	0		4.66366650390625	-0.2676393127441406	0		5.58324658203125	0.09598458099365234	0		-0.006563693046569824	5.95175634765625	0		
0.030106136322021484	0.0019994239807128904	0		0.5000028991699219	-2.4300107421875	0		-0.92285009765625	0.17282229614257813	0		-0.79871142578125	-2.39891357421875	0		1.508251220703125	-0.802380615234375	0		3.234509765625	-0.38874197387695314	0		4.65722265625	-0.25936337280273436	0		5.56760205078125	0.08838121795654297	0		-0.02329591751098633	5.9411171875	0		
-0.057353599548339844	-0.0027692630290985106	0		0.43582174682617186	-2.416056640625	0		-0.9242453002929687	0.17297125244140624	0		-0.80208349609375	-2.400737548828125	0		1.5448092041015624	-0.8076563110351562	0		3.238025634765625	-0.39657699584960937	0		4.66073583984375	-0.26717193603515627	0		5.56131982421875	0.09771202850341797	0		-0.15807284545898437	5.9199306640625	0		
0.015438426971435546	4.731090068817139E-4	0		0.44556103515625	-2.422022216796875	0		-0.9195640258789063	0.16803021240234375	0		-0.8174044189453125	-2.411427734375	0		1.511569580078125	-0.80806103515625	0		3.241969482421875	-0.38139349365234376	0		4.6684658203125	-0.26899765014648436	0		5.56005322265625	0.09702194213867188	0		-0.1784231719970703	5.925318359375	0		
-0.022606552124023436	0.007078323841094971	0		0.4465479736328125	-2.4198818359375	0		-0.9215806274414062	0.17715950012207032	0		-0.7893583374023437	-2.4046640625	0		1.54757177734375	-0.8003151245117187	0		3.239738037109375	-0.3911182556152344	0		4.66245263671875	-0.260625	0		5.56892724609375	0.09724150848388671	0		-0.14567930603027343	5.93104248046875	0		
0.018256240844726563	-0.004296298980712891	0		0.463720703125	-2.413944091796875	0		-0.9216972045898437	0.1682509765625	0		-0.7932828369140625	-2.406518798828125	0		1.5435692138671875	-0.80307373046875	0		3.248840576171875	-0.3839677734375	0		4.65739111328125	-0.2662433776855469	0		5.56203564453125	0.10668370056152343	0		-0.013649088859558105	5.9525439453125	0		
